# xmcd CD database file
#
# Track frame offsets:
#	204
#	14016
#	29961
#	45736
#	68049
#	80964
#	91493
#	110656
#	130365
#	144819
#	160863
#
# Disc length: 2280 seconds
#
# Revision: 0
# Processed by: cddbd v1.5.1PL0 Copyright (c) Steve Scherf et al.
# Submitted via: CDex 1.50beta10
#
DISCID=9f08e60b
DTITLE=Junior Jazz - Junior Jazz
DYEAR=2003
DGENRE=Jazz
TTITLE0=Nature Boy
TTITLE1=The Look of Love
TTITLE2=My Favourite Things
TTITLE3=Uptown Top Ranking
TTITLE4=Thirteen
TTITLE5=Carnival
TTITLE6=Playground Love
TTITLE7=Le Poisson des Mers du Sud
TTITLE8=Devil May Care
TTITLE9=The Beat Goes On
TTITLE10=I Will Say Goodbye
EXTD=YEAR: 2003
EXTT0=
EXTT1=
EXTT2=
EXTT3=
EXTT4=
EXTT5=
EXTT6=
EXTT7=
EXTT8=
EXTT9=
EXTT10=
PLAYORDER=
